{"asset":{"version":"2.0","generator":"VECTARY"},"nodes":[{"translation":[0.023482421875,0.004111004352569581,-0.005851058959960936],"scale":[0.001,0.001,0.001],"rotation":[-0.7071067811865475,0,0,0.7071067811865476],"name":"banana","mesh":0}],"materials":[{"pbrMetallicRoughness":{"baseColorFactor":[1,0.8831797376727453,0.4423229488192018,1],"metallicRoughnessTexture":{"index":1,"extensions":{"KHR_texture_transform":{"offset":[0,0],"scale":[1,1],"rotation":0}},"texCoord":0},"metallicFactor":0,"roughnessFactor":1},"name":"Wood 8","normalTexture":{"index":0,"scale":1,"extensions":{"KHR_texture_transform":{"offset":[0,0],"scale":[1,1],"rotation":0}},"texCoord":0},"emissiveFactor":[0,0,0],"extensions":{},"alphaMode":"OPAQUE","doubleSided":false}],"textures":[{"sampler":0,"source":0},{"sampler":0,"source":1}],"images":[{"uri":"wood_Wood_006_NormalMap.jpg","mimeType":"image/jpeg"},{"uri":"metallicTexture&wood_Wood_006_Roughness_3.jpg","mimeType":"image/jpeg"}],"samplers":[{"wrapS":10497,"wrapT":10497}],"meshes":[{"primitives":[{"mode":4,"attributes":{"POSITION":1,"NORMAL":2,"TEXCOORD_0":3},"material":0,"indices":0}]}],"accessors":[{"bufferView":0,"byteOffset":0,"componentType":5125,"count":13200,"type":"SCALAR"},{"bufferView":1,"byteOffset":0,"componentType":5126,"count":7150,"max":[510.004150390625,485.236328125,107.57842254638672],"min":[-510.004150390625,-485.236328125,0],"type":"VEC3"},{"bufferView":2,"byteOffset":0,"componentType":5126,"count":7150,"type":"VEC3"},{"bufferView":3,"byteOffset":0,"componentType":5126,"count":7150,"type":"VEC2"}],"bufferViews":[{"buffer":0,"byteOffset":0,"byteLength":52800,"target":34963},{"buffer":0,"byteOffset":52800,"byteLength":85800,"target":34962},{"buffer":0,"byteOffset":138600,"byteLength":85800,"target":34962},{"buffer":0,"byteOffset":224400,"byteLength":57200,"target":34962}],"scene":0,"scenes":[{"nodes":[0],"name":"obj"}],"extensionsUsed":["KHR_texture_transform"],"buffers":[{"byteLength":281600,"uri":"obj.bin"}]}