<?xml version="1.0" encoding="iso-8859-1"?>
<!-- Generator: Adobe Illustrator 18.1.1, SVG Export Plug-In . SVG Version: 6.00 Build 0)  -->
<svg version="1.1" id="Ebene_1" xmlns="http://www.w3.org/2000/svg" xmlns:xlink="http://www.w3.org/1999/xlink" x="0px" y="0px"
	 viewBox="0 0 22.853 25.212" style="enable-background:new 0 0 22.853 25.212;" xml:space="preserve">
<g>
	<g>
		<polygon style="fill:#E2C663;" points="7.393,13.038 5.513,13.038 4.705,14.438 3.272,15.184 3.189,17.063 2.25,18.691 
			3.057,20.09 2.987,21.705 4.572,22.716 5.513,24.344 7.129,24.344 8.492,25.212 10.16,24.344 12.041,24.344 12.848,22.944 
			14.282,22.198 14.364,20.319 15.304,18.691 14.496,17.291 14.566,15.677 12.98,14.667 12.041,13.038 10.424,13.038 9.062,12.17 		
			"/>
		<g>
			<path style="fill:#AC8F46;" d="M9.162,18.691c0-2.219-0.172-4.017-0.385-4.017s-0.385,1.798-0.385,4.017s0.172,4.017,0.385,4.017
				S9.162,20.91,9.162,18.691"/>
		</g>
	</g>
	<g>
		<polygon style="fill:#E2C663;" points="14.091,0 12.423,0.868 10.542,0.868 9.734,2.268 8.301,3.014 8.219,4.892 7.279,6.521 
			8.087,7.921 8.016,9.535 9.602,10.545 10.542,12.173 12.159,12.173 13.521,13.042 15.189,12.173 17.07,12.173 17.877,10.774 
			19.311,10.028 19.393,8.15 20.333,6.521 19.525,5.121 19.595,3.507 18.01,2.497 17.07,0.868 15.454,0.868 		"/>
		<g>
			<path style="fill:#AC8F46;" d="M14.191,6.521c0-2.219-0.172-4.017-0.385-4.017s-0.385,1.798-0.385,4.017s0.172,4.017,0.385,4.017
				S14.191,8.74,14.191,6.521"/>
		</g>
	</g>
	<g>
		<polygon style="fill:#D4A465;" points="5.144,5.096 3.263,5.096 2.455,6.496 1.022,7.242 0.94,9.12 0,10.749 0.808,12.148 
			0.737,13.763 2.323,14.773 3.263,16.402 4.879,16.402 6.242,17.269 7.911,16.402 9.791,16.402 10.599,15.002 12.032,14.255 
			12.115,12.377 13.054,10.749 12.246,9.349 12.317,7.735 10.731,6.724 9.791,5.096 8.174,5.096 6.812,4.228 		"/>
		<g>
			<path style="fill:#AC8F46;" d="M6.912,11.518c0-2.219-0.172-4.017-0.385-4.017s-0.385,1.798-0.385,4.017s0.172,4.017,0.385,4.017
				S6.912,13.737,6.912,11.518"/>
		</g>
	</g>
	<g>
		<polygon style="fill:#D4A465;" points="14.942,10.107 13.062,10.107 12.254,11.507 10.82,12.253 10.738,14.131 9.798,15.76 
			10.606,17.159 10.536,18.774 12.121,19.784 13.062,21.413 14.677,21.413 16.041,22.281 17.709,21.413 19.589,21.413 
			20.397,20.013 21.831,19.267 21.913,17.388 22.853,15.76 22.045,14.36 22.115,12.746 20.529,11.735 19.589,10.107 17.973,10.107 
			16.61,9.239 		"/>
		<g>
			<path style="fill:#AC8F46;" d="M16.711,15.76c0-2.219-0.172-4.017-0.385-4.017c-0.213,0-0.385,1.798-0.385,4.017
				s0.172,4.017,0.385,4.017C16.539,19.777,16.711,17.979,16.711,15.76"/>
		</g>
	</g>
</g>
</svg>
