<?xml version="1.0" encoding="utf-8"?>
<!-- Generator: Adobe Illustrator 24.3.0, SVG Export Plug-In . SVG Version: 6.00 Build 0)  -->
<svg version="1.1" id="Ebene_1" xmlns="http://www.w3.org/2000/svg" xmlns:xlink="http://www.w3.org/1999/xlink" x="0px" y="0px"
	 viewBox="0 0 47.3 47.3" style="enable-background:new 0 0 47.3 47.3;" xml:space="preserve">
<style type="text/css">
	.st0{fill:#AAC56E;}
	.st1{fill:#FFFFFF;}
</style>
<circle class="st0" cx="23.6" cy="23.6" r="23.6"/>
<g>
	<g>
		<path class="st1" d="M23.7,39.4L23,39.1c-0.3-0.1-7-3.6-13.9-11c-2-2.2-3.2-5-3.2-7.7c0-5.9,4.7-10.6,10.5-10.6
			c2.7,0,5.3,1.1,7.3,3c1.9-1.9,4.6-3,7.3-3c5.8,0,10.5,4.8,10.5,10.6c0,2.6-1.1,5.3-3.2,7.5c-6.9,7.3-13.6,11-13.9,11.2L23.7,39.4z
			 M16.4,12.3c-4.3,0-7.9,3.6-7.9,8c0,2,0.9,4.2,2.5,5.9c5.4,5.8,10.8,9.1,12.6,10.1c1.8-1.1,7.2-4.6,12.7-10.3
			c1.6-1.7,2.5-3.7,2.5-5.7c0-4.4-3.5-8-7.9-8c-2.2,0-4.2,0.9-5.7,2.5l0,0l-1.5,1.5l-1.5-1.6C20.6,13.2,18.6,12.3,16.4,12.3z"/>
	</g>
</g>
<path class="st1" d="M31.3,27.2c-3.1,2.1-7.8,0.5-7.8,0.5s0.2-5,3.2-7.1s7.8-0.5,7.8-0.5S34.4,25.1,31.3,27.2z"/>
<path class="st1" d="M22.8,20c2.2,3,0.7,7.8,0.7,7.8s-5,0-7.2-3s-0.7-7.8-0.7-7.8S20.6,17,22.8,20z"/>
<g>
	<path class="st1" d="M23.5,38.7c-0.7,0-1.3-0.6-1.3-1.3v-9.8c0-0.7,0.6-1.3,1.3-1.3c0.7,0,1.3,0.6,1.3,1.3v9.8
		C24.8,38.1,24.2,38.7,23.5,38.7z"/>
</g>
</svg>
