<?xml version="1.0" encoding="utf-8"?>
<!-- Generator: Adobe Illustrator 21.1.0, SVG Export Plug-In . SVG Version: 6.00 Build 0)  -->
<svg version="1.1" id="Ebene_1" xmlns="http://www.w3.org/2000/svg" xmlns:xlink="http://www.w3.org/1999/xlink" x="0px" y="0px"
	 viewBox="0 0 19.1 19.1" style="enable-background:new 0 0 19.1 19.1;" xml:space="preserve">
<style type="text/css">
	.st0{fill:#FFFFFF;}
	.st1{fill:#3C3C3B;}
	.st2{fill:#E50056;}
</style>
<g>
	<path class="st0" d="M9.6,18c4.7,0,8.4-3.8,8.4-8.4s-3.8-8.4-8.4-8.4S1.2,4.9,1.2,9.6S4.9,18,9.6,18"/>
	<g>
		<path class="st1" d="M14.7,11.6c0,2.8-2.3,5.1-5.1,5.1s-5.1-2.3-5.1-5.1s5.1-9,5.1-9S14.7,8.8,14.7,11.6z"/>
		<path class="st0" d="M11.3,12.6c0.5-0.3,1.6-1.2,1.5-1.2c-0.1-0.1-1.4,0.5-1.8,0.8c-0.4,0.2-1,0.7-1.2,0.9c0-0.3,0-0.6,0-0.9
			c0.2-0.1,1.2-0.7,1.6-1c0.5-0.3,1.5-1.4,1.5-1.5c-0.1-0.1-1.4,0.7-1.9,1c-0.4,0.3-1,0.8-1.2,1.1c0-0.3,0-0.6,0-1
			c0.2-0.1,1-0.6,1.4-0.9c0.4-0.3,1.3-1.2,1.3-1.3c-0.1-0.1-1.2,0.6-1.6,0.9c-0.3,0.2-0.8,0.7-1,0.9c0-0.2,0-0.4,0-0.7
			c0,0,0.9-0.7,1.3-1.1c0.3-0.3,1.1-1.4,1.1-1.4S10.9,8,10.6,8.3c-0.3,0.3-0.7,0.8-0.9,1c0-0.3,0-0.5,0-0.8c0.2-0.1,0.8-0.8,1-1.1
			C11,7.1,11.6,6.1,11.5,6c-0.1,0-0.9,0.8-1.2,1.1c-0.2,0.3-0.5,0.8-0.7,1c0-0.1,0-0.3,0-0.4c0-0.2,0.2-1,0.2-1.4
			c0-0.5-0.2-1.7-0.3-1.7c-0.1,0-0.3,1.3-0.3,1.7c0,0.4,0.2,1.2,0.2,1.4c0,0.1,0,0.3,0,0.4C9.4,7.9,9,7.4,8.8,7.1
			C8.6,6.8,7.7,5.9,7.6,6C7.5,6,8.1,7.1,8.4,7.4c0.3,0.3,1,1,1.1,1.1c0,0.3,0,0.5,0,0.8C9.3,9,8.9,8.5,8.6,8.3
			C8.3,7.9,7.2,7.1,7.2,7.2C7.1,7.3,7.9,8.3,8.2,8.6c0.3,0.3,1,0.9,1.3,1c0,0.1,0,0.2,0,0.4c0,0.1,0,0.2,0,0.3
			c-0.2-0.2-0.7-0.7-1-0.9c-0.4-0.3-1.6-1-1.6-0.9c-0.1,0.1,0.9,1,1.3,1.3c0.3,0.3,1.1,0.7,1.4,0.9c0,0.3,0,0.6,0,1
			c-0.3-0.2-0.8-0.8-1.2-1c-0.4-0.3-1.8-1.1-1.9-1c-0.1,0.1,1,1.2,1.5,1.5c0.4,0.3,1.3,0.8,1.6,1c0,0.3,0,0.6,0,0.9
			c-0.3-0.2-0.8-0.6-1.2-0.8c-0.4-0.3-1.8-0.9-1.8-0.8c-0.1,0.1,1.1,1,1.5,1.2c0.3,0.2,1.1,0.6,1.5,0.7c0,0.3,0,0.7,0,0.9
			c-0.3-0.1-0.7-0.4-1-0.5C7.9,13.6,7,13.4,7,13.5c0,0.1,0.8,0.6,1.2,0.7c0.3,0.1,0.9,0.3,1.2,0.4c0,0.6,0,1,0,1.1
			c0,0.1,0.3-0.2,0.3-0.2c0-0.1,0-0.4,0-0.8c0.2,0,0.9-0.2,1.3-0.4c0.4-0.2,1.4-0.7,1.4-0.8c0-0.1-1.2,0.2-1.6,0.4
			c-0.3,0.1-0.9,0.4-1.1,0.5c0-0.3,0-0.6,0-0.9C9.8,13.3,10.8,12.9,11.3,12.6z"/>
	</g>
	<path class="st2" d="M9.6,0C4.3,0,0,4.3,0,9.6c0,5.3,4.3,9.6,9.6,9.6c5.3,0,9.6-4.3,9.6-9.6C19.1,4.3,14.8,0,9.6,0z M1.3,9.6
		C1.3,5,5,1.3,9.6,1.3c2,0,3.9,0.7,5.3,2L3.3,14.9C2.1,13.5,1.3,11.6,1.3,9.6z M9.6,17.8c-2,0-3.9-0.7-5.3-2L15.8,4.2
		c1.2,1.4,2,3.3,2,5.3C17.8,14.1,14.1,17.8,9.6,17.8z"/>
</g>
</svg>
