{"asset":{"version":"2.0","generator":"VECTARY"},"nodes":[{"translation":[-0.0001980133056640625,-0.008345991134643559,0.0128311767578125],"scale":[0.001,0.001,0.001],"rotation":[-0.7071067811865475,0,0,0.7071067811865476],"name":"chocolate","mesh":0}],"materials":[{"pbrMetallicRoughness":{"baseColorFactor":[0.1904628788224093,0.06381487094867724,0.026548682828472912,1],"metallicFactor":0,"roughnessFactor":0.2},"name":"Canberra","emissiveFactor":[0,0,0],"extensions":{},"alphaMode":"OPAQUE","doubleSided":false}],"meshes":[{"primitives":[{"mode":4,"attributes":{"POSITION":1,"NORMAL":2},"material":0,"indices":0}]}],"accessors":[{"bufferView":0,"byteOffset":0,"componentType":5125,"count":119040,"type":"SCALAR"},{"bufferView":1,"byteOffset":0,"componentType":5126,"count":19860,"max":[492.5494384765625,576.96875,101.2198257446289],"min":[-492.5494384765625,-576.96875,0],"type":"VEC3"},{"bufferView":2,"byteOffset":0,"componentType":5126,"count":19860,"type":"VEC3"}],"bufferViews":[{"buffer":0,"byteOffset":0,"byteLength":476160,"target":34963},{"buffer":0,"byteOffset":476160,"byteLength":238320,"target":34962},{"buffer":0,"byteOffset":714480,"byteLength":238320,"target":34962}],"scene":0,"scenes":[{"nodes":[0],"name":"obj"}],"extensionsUsed":["KHR_texture_transform"],"buffers":[{"byteLength":952800,"uri":"obj.bin"}]}