{"asset":{"version":"2.0","generator":"VECTARY"},"nodes":[{"translation":[0,-1.8488927466117465e-35,9.211114659479005e-20],"scale":[1,0.9999999999999996,0.9999999999999996],"rotation":[0.027049303815331993,0,0,0.9996341006403823],"name":"dark","children":[1]},{"translation":[0,0,0],"scale":[10,10.000000070670637,10.000000070670637],"rotation":[-0.028253150496322012,0,0,0.9996008000632214],"name":"Object_0","mesh":0}],"materials":[{"pbrMetallicRoughness":{"baseColorFactor":[1,0.2932161491323746,0.000056921765712193066,1],"baseColorTexture":{"index":0,"extensions":{"KHR_texture_transform":{"offset":[0,0],"scale":[1,1],"rotation":0}},"texCoord":0},"metallicFactor":1,"roughnessFactor":1},"name":"Material.001 1","emissiveTexture":{"index":1,"extensions":{"KHR_texture_transform":{"offset":[0,0],"scale":[1,1],"rotation":0}},"texCoord":0},"emissiveFactor":[1,1,1],"extensions":{},"alphaMode":"OPAQUE","doubleSided":true}],"textures":[{"sampler":0,"source":0},{"sampler":0,"source":1}],"images":[{"uri":"Material001_baseColor_1.jpg","mimeType":"image/jpeg"},{"uri":"Material001_baseColor.jpg","mimeType":"image/jpeg"}],"samplers":[{"wrapS":10497,"wrapT":10497}],"meshes":[{"primitives":[{"mode":4,"attributes":{"POSITION":1,"NORMAL":2,"TEXCOORD_0":3},"material":0,"indices":0}]}],"accessors":[{"bufferView":0,"byteOffset":0,"componentType":5125,"count":840,"type":"SCALAR"},{"bufferView":1,"byteOffset":0,"componentType":5126,"count":208,"max":[0.06248011812567711,0.009358854964375496,0.06259739398956299],"min":[-0.06270898878574371,-0.0065964628010988235,-0.06247052177786827],"type":"VEC3"},{"bufferView":2,"byteOffset":0,"componentType":5126,"count":208,"type":"VEC3"},{"bufferView":3,"byteOffset":0,"componentType":5126,"count":208,"type":"VEC2"}],"bufferViews":[{"buffer":0,"byteOffset":0,"byteLength":3360,"target":34963},{"buffer":0,"byteOffset":3360,"byteLength":2496,"target":34962},{"buffer":0,"byteOffset":5856,"byteLength":2496,"target":34962},{"buffer":0,"byteOffset":8352,"byteLength":1664,"target":34962}],"scene":0,"scenes":[{"nodes":[0],"name":"obj"}],"extensionsUsed":["KHR_texture_transform"],"buffers":[{"byteLength":10016,"uri":"obj.bin"}]}