{"asset":{"version":"2.0","generator":"VECTARY"},"nodes":[{"translation":[0.06007106018066406,0.0161959285736084,0.017432815551757817],"scale":[0.001,0.001,0.001],"rotation":[-0.7071067811865475,0,0,0.7071067811865476],"name":"berries","mesh":0}],"materials":[{"pbrMetallicRoughness":{"baseColorFactor":[1,1,1,1],"baseColorTexture":{"index":0,"extensions":{"KHR_texture_transform":{"offset":[0,0],"scale":[1,1],"rotation":0}},"texCoord":0},"metallicRoughnessTexture":{"index":1,"extensions":{"KHR_texture_transform":{"offset":[0,0],"scale":[1,1],"rotation":0}},"texCoord":0},"metallicFactor":1,"roughnessFactor":0.7456597119},"name":"phong1","emissiveFactor":[0,0,0],"extensions":{},"alphaMode":"OPAQUE","doubleSided":false}],"textures":[{"sampler":0,"source":0},{"sampler":0,"source":1}],"images":[{"uri":"phong1_baseColor.jpg","mimeType":"image/jpeg"},{"uri":"phong1_metallicRoughness.jpg","mimeType":"image/jpeg"}],"samplers":[{"wrapS":10497,"wrapT":10497}],"meshes":[{"primitives":[{"mode":4,"attributes":{"POSITION":1,"NORMAL":2,"TEXCOORD_0":3},"material":0,"indices":0}]}],"accessors":[{"bufferView":0,"byteOffset":0,"componentType":5125,"count":7680,"type":"SCALAR"},{"bufferView":1,"byteOffset":0,"componentType":5126,"count":1376,"max":[439.73443603515625,407.6793212890625,105.53377532958984],"min":[-439.73443603515625,-407.6793212890625,0],"type":"VEC3"},{"bufferView":2,"byteOffset":0,"componentType":5126,"count":1376,"type":"VEC3"},{"bufferView":3,"byteOffset":0,"componentType":5126,"count":1376,"type":"VEC2"}],"bufferViews":[{"buffer":0,"byteOffset":0,"byteLength":30720,"target":34963},{"buffer":0,"byteOffset":30720,"byteLength":16512,"target":34962},{"buffer":0,"byteOffset":47232,"byteLength":16512,"target":34962},{"buffer":0,"byteOffset":63744,"byteLength":11008,"target":34962}],"scene":0,"scenes":[{"nodes":[0],"name":"obj"}],"extensionsUsed":["KHR_texture_transform"],"buffers":[{"byteLength":74752,"uri":"obj.bin"}]}